<svg xmlns="http://www.w3.org/2000/svg" width="512" height="512"><path fill="#d14f4f" d="m406.375 107.75 2.44-.002c11.95.016 23.531.351 35.185 3.252l2.185.536c27.263 6.915 49.91 21.134 64.565 45.57 1.44 3.334 1.783 5.301 1.25 8.894-2.805 4.189-5.758 6.31-10.156 8.7l-1.77.972a769 769 0 0 1-5.574 3.016q-1.875 1.022-3.746 2.048A956 956 0 0 1 481 186l-2.17 1.183c-3.05 1.361-5.55 1.162-8.83.817-3.492-2.044-5.537-4.655-7.875-7.875-7.807-10.652-19.32-15.742-32.125-18.125-20.45-3.075-44.815-4.639-63.2 6.648-5.62 4.22-8.213 9.205-9.488 16.04-.713 7.152-.549 14.332 3.833 20.32 7.45 7.998 19.255 11.266 29.355 14.68q2.216.765 4.431 1.533c7.878 2.722 15.785 5.357 23.698 7.974l2.4.796c3.797 1.256 7.596 2.505 11.4 3.736C451.7 240.011 471.776 247.188 487 261l2.773 2.457c12.812 11.987 21.29 28.648 22.404 46.357.48 22.733-1.479 44.218-17.615 61.686-1.818 1.877-3.678 3.687-5.562 5.5l-2.21 2.234c-18.985 18.209-48.082 24.842-73.626 24.97l-2.784.016q-2.907.014-5.814.02c-2.899.01-5.796.04-8.695.072C356.393 404.537 321.607 391.27 293 364l-2.371-2.176c-24.106-22.816-36.217-55.931-47.629-86.199-5.258-13.906-10.51-27.794-16.434-41.434l-1.213-2.794c-10.876-24.671-27.06-46.24-52.873-56.3-24.56-7.745-50.395-7.176-73.664 4.5-21.016 11.754-36.202 30.193-43.23 53.223-6.97 25.937-3.536 52.439 9.852 75.727C68.02 312.603 70.925 316.31 74 320l1.508 1.984C87.627 337.21 108.01 346.492 127 349c23.67 2.267 44.664-5.054 63-20a598 598 0 0 0 3.75-3.437c3.248-2.844 5.852-3.644 10.25-3.563 4.618 2.22 7.81 5.614 11.313 9.25 3.644 3.723 7.275 7.373 11.25 10.75 3.8 3.264 6.815 6.05 8.375 10.938.103 5.063-2.107 8.173-5.504 11.808q-1.484 1.362-2.996 2.692l-1.62 1.446c-26.484 23.29-61.747 35.075-96.846 32.996C109.925 400.582 93.217 395.974 77 388l-3.46-1.687C61.687 380.233 51.65 372.11 42 363l-2.047-1.887C25.908 347.714 16.526 330.716 9 313l-1.113-2.582C-2.057 285.424-4.01 252.01 3 226l.586-2.317C9.273 201.501 19.233 182.491 34 165l2.117-2.527C41.535 156.216 47.447 151.038 54 146l2.477-1.988C87.8 119.815 126.67 114.118 165 119c32.52 4.253 62.716 22.336 83 48 20.6 27.114 32.483 57.98 44.33 89.635 3.773 10.047 7.701 19.995 11.975 29.842l1.24 2.858c11.352 25.828 27.502 45.578 53.892 56.478 25.07 9.035 59.465 10.264 84.184-1.008 7.272-3.798 11.73-8.506 15.379-15.805 2.116-7.918 1.176-16.95-2.574-24.219-4.003-5-9.14-7.97-14.801-10.719l-2.134-1.043c-11.774-5.647-23.969-9.515-36.428-13.332-56.744-17.42-56.744-17.42-74.063-32.687l-2.586-2.223c-13.045-12.046-20.273-29.057-21.637-46.656-.884-22.578 2.997-43.395 18.18-60.957C330.389 129.292 338.485 124 348 119l2.605-1.437c17.123-8.711 36.956-9.799 55.77-9.813"/></svg>