<svg xmlns="http://www.w3.org/2000/svg" version="1.1" xmlns:xlink="http://www.w3.org/1999/xlink" xmlns:svgjs="http://svgjs.dev/svgjs" width="1024px" height="1024px"><svg version="1.0" xmlns="http://www.w3.org/2000/svg" width="1024px" height="1024px" viewBox="0 0 1024 1024" preserveAspectRatio="xMidYMid meet">
  <!-- Background covering the whole new canvas -->
  <rect width="1024" height="1024" fill="#a80003" rx="198" ry="198"></rect>
  
  <!-- Left icon -->
  <g transform="translate(50,256)">
    <g transform="translate(0,512) scale(0.100000,-0.100000)" fill="#ffffff" stroke="none">
      <path d="M2299 5065 c-575 -90 -1079 -461 -1329 -978 -62 -130 -104 -250 -140 -402 -16 -66 -43 -160 -61 -210 -29 -79 -33 -102 -33 -190 0 -170 59 -302 187 -422 90 -84 237 -152 329 -153 59 0 58 -7 58 576 0 627 11 575 -118 557 -43 -7 -81 -8 -86 -3 -11 11 32 120 86 220 193 354 506 615 888 740 171 56 286 74 480 74 197 0 311 -18 486 -76 241 -79 437 -201 619 -383 136 -136 217 -250 303 -423 74 -150 73 -162 -2 -143 -25 6 -61 11 -80 11 -69 0 -66 28 -66 -570 0 -604 -4 -570 73 -570 103 1 256 79 347 177 160 174 196 434 90 643 -10 19 -25 73 -35 120 -45 222 -164 499 -292 680 -85 119 -291 327 -403 407 -237 169 -503 277 -781 318 -130 18 -399 18 -520 0z"></path>
      <path d="M2425 4251 c-166 -28 -333 -102 -460 -204 -340 -274 -447 -762 -252 -1152 119 -240 324 -410 592 -491 83 -25 104 -28 255 -28 151 0 172 3 255 28 358 109 602 377 676 741 6 33 11 114 11 180 -3 359 -204 677 -527 835 -55 27 -136 58 -180 70 -89 23 -287 34 -370 21z"></path>
      <path d="M2280 2014 c-717 -107 -1331 -597 -1583 -1264 -68 -180 -127 -438 -127 -559 0 -55 26 -103 72 -131 33 -20 51 -20 1925 -18 l1893 3 37 38 38 37 -1 108 c-2 197 -71 446 -189 689 -291 596 -856 1006 -1514 1097 -139 20 -419 19 -551 0z"></path>
    </g>
  </g>
  
  <!-- Right icon, shifted 512 units to the right -->
  <g transform="translate(512,256)">
    <g transform="translate(-50,512) scale(0.100000,-0.100000)" fill="#ffffff" stroke="none">
      <path d="M2299 5065 c-575 -90 -1079 -461 -1329 -978 -62 -130 -104 -250 -140 -402 -16 -66 -43 -160 -61 -210 -29 -79 -33 -102 -33 -190 0 -170 59 -302 187 -422 90 -84 237 -152 329 -153 59 0 58 -7 58 576 0 627 11 575 -118 557 -43 -7 -81 -8 -86 -3 -11 11 32 120 86 220 193 354 506 615 888 740 171 56 286 74 480 74 197 0 311 -18 486 -76 241 -79 437 -201 619 -383 136 -136 217 -250 303 -423 74 -150 73 -162 -2 -143 -25 6 -61 11 -80 11 -69 0 -66 28 -66 -570 0 -604 -4 -570 73 -570 103 1 256 79 347 177 160 174 196 434 90 643 -10 19 -25 73 -35 120 -45 222 -164 499 -292 680 -85 119 -291 327 -403 407 -237 169 -503 277 -781 318 -130 18 -399 18 -520 0z"></path>
      <path d="M2425 4251 c-166 -28 -333 -102 -460 -204 -340 -274 -447 -762 -252 -1152 119 -240 324 -410 592 -491 83 -25 104 -28 255 -28 151 0 172 3 255 28 358 109 602 377 676 741 6 33 11 114 11 180 -3 359 -204 677 -527 835 -55 27 -136 58 -180 70 -89 23 -287 34 -370 21z"></path>
      <path d="M2280 2014 c-717 -107 -1331 -597 -1583 -1264 -68 -180 -127 -438 -127 -559 0 -55 26 -103 72 -131 33 -20 51 -20 1925 -18 l1893 3 37 38 38 37 -1 108 c-2 197 -71 446 -189 689 -291 596 -856 1006 -1514 1097 -139 20 -419 19 -551 0z"></path>
    </g>
  </g>
</svg><style>@media (prefers-color-scheme: light) { :root { filter: none; } }
@media (prefers-color-scheme: dark) { :root { filter: none; } }
</style></svg>